<svg width="137" height="23" viewBox="0 0 137 23" fill="none" xmlns="http://www.w3.org/2000/svg">
<path d="M0.149857 1.27273V18H3.05753V6.48367H3.21271L7.83558 17.951H10.0082L14.631 6.50817H14.7862V18H17.6939V1.27273H13.9858L9.01989 13.3935H8.82386L3.85795 1.27273H0.149857Z" fill="black"/>
<path d="M19.5979 18H22.5546V5.45455H19.5979V18ZM21.0844 3.67401C22.0237 3.67401 22.7915 2.95526 22.7915 2.07315C22.7915 1.18288 22.0237 0.464134 21.0844 0.464134C20.137 0.464134 19.3692 1.18288 19.3692 2.07315C19.3692 2.95526 20.137 3.67401 21.0844 3.67401Z" fill="black"/>
<path d="M29.8023 18.245C32.955 18.245 34.9642 16.3746 35.1766 13.712H32.3506C32.0974 15.0597 31.1255 15.8356 29.8268 15.8356C27.9809 15.8356 26.7884 14.2919 26.7884 11.7273C26.7884 9.19531 28.0054 7.67614 29.8268 7.67614C31.248 7.67614 32.1219 8.59091 32.3506 9.79972H35.1766C34.9724 7.0799 32.8488 5.29119 29.786 5.29119C26.1105 5.29119 23.7909 7.94567 23.7909 11.7763C23.7909 15.5742 26.0534 18.245 29.8023 18.245Z" fill="black"/>
<path d="M39.2961 10.6491C39.2961 8.83594 40.4232 7.79048 42.0077 7.79048C43.5596 7.79048 44.4744 8.77876 44.4744 10.4695V18H47.431V10.0121C47.431 6.98189 45.7158 5.29119 43.1104 5.29119C41.1828 5.29119 39.9577 6.16513 39.3778 7.58629H39.2307V1.27273H36.3394V18H39.2961V10.6491Z" fill="black"/>
<path d="M54.7339 18.245C57.6579 18.245 59.6671 16.8157 60.1898 14.6349L57.4292 14.3246C57.029 15.3864 56.0488 15.9418 54.7747 15.9418C52.8635 15.9418 51.5975 14.684 51.573 12.5359H60.3123V11.6293C60.3123 7.22692 57.666 5.29119 54.5787 5.29119C50.9849 5.29119 48.6408 7.92933 48.6408 11.8008C48.6408 15.7376 50.9522 18.245 54.7339 18.245ZM51.5812 10.543C51.671 8.94212 52.8553 7.59446 54.6195 7.59446C56.3184 7.59446 57.4618 8.83594 57.4782 10.543H51.5812Z" fill="black"/>
<path d="M64.5053 1.27273H61.5487V18H64.5053V1.27273Z" fill="black"/>
<path d="M69.2374 1.27273H66.2807V18H69.2374V1.27273Z" fill="black"/>
<path d="M76.5668 18.245C79.4908 18.245 81.5 16.8157 82.0228 14.6349L79.2621 14.3246C78.8619 15.3864 77.8818 15.9418 76.6076 15.9418C74.6964 15.9418 73.4304 14.684 73.4059 12.5359H82.1453V11.6293C82.1453 7.22692 79.499 5.29119 76.4116 5.29119C72.8178 5.29119 70.4737 7.92933 70.4737 11.8008C70.4737 15.7376 72.7852 18.245 76.5668 18.245ZM73.4141 10.543C73.5039 8.94212 74.6882 7.59446 76.4524 7.59446C78.1513 7.59446 79.2948 8.83594 79.3111 10.543H73.4141Z" fill="black"/>
<path d="M86.8089 1.27273L92.8938 11.7599V18H95.9158V11.7599L102.001 1.27273H98.5784L94.4864 8.67259H94.3231L90.2311 1.27273H86.8089Z" fill="black"/>
<path d="M104.205 18.2532C106.173 18.2532 107.349 17.3303 107.888 16.2766H107.986V18H110.829V9.60369C110.829 6.28764 108.125 5.29119 105.732 5.29119C103.094 5.29119 101.068 6.46733 100.415 8.75426L103.176 9.14631C103.47 8.28871 104.303 7.55362 105.749 7.55362C107.121 7.55362 107.872 8.25604 107.872 9.48935V9.53835C107.872 10.3878 106.982 10.4286 104.768 10.6655C102.334 10.9268 100.007 11.6538 100.007 14.4798C100.007 16.9464 101.812 18.2532 104.205 18.2532ZM104.973 16.0806C103.739 16.0806 102.857 15.517 102.857 14.4308C102.857 13.2955 103.845 12.8217 105.169 12.6339C105.945 12.5277 107.496 12.3317 107.88 12.0213V13.4996C107.88 14.8963 106.753 16.0806 104.973 16.0806Z" fill="black"/>
<path d="M115.493 10.6491C115.493 8.83594 116.588 7.79048 118.148 7.79048C119.675 7.79048 120.59 8.7951 120.59 10.4695V18H123.547V10.0121C123.555 7.00639 121.84 5.29119 119.251 5.29119C117.372 5.29119 116.082 6.18963 115.51 7.58629H115.363V5.45455H112.537V18H115.493V10.6491Z" fill="black"/>
<path d="M130.743 22.9659C134.133 22.9659 136.632 21.4141 136.632 18.2042V5.45455H133.716V7.52912H133.553C133.104 6.62252 132.165 5.29119 129.951 5.29119C127.052 5.29119 124.773 7.56179 124.773 11.6864C124.773 15.7784 127.052 17.8203 129.943 17.8203C132.091 17.8203 133.096 16.6687 133.553 15.7457H133.7V18.1225C133.7 19.9684 132.475 20.728 130.792 20.728C129.012 20.728 128.228 19.8867 127.868 19.1516L125.206 19.7969C125.745 21.5529 127.55 22.9659 130.743 22.9659ZM130.768 15.5007C128.816 15.5007 127.787 13.9815 127.787 11.6701C127.787 9.39134 128.799 7.71698 130.768 7.71698C132.671 7.71698 133.716 9.29333 133.716 11.6701C133.716 14.0632 132.655 15.5007 130.768 15.5007Z" fill="black"/>
<path d="M0 20H123.5V22H0V20Z" fill="black"/>
</svg>
