<?xml version="1.0" encoding="utf-8"?>
<!-- Generator: Adobe Illustrator 25.3.1, SVG Export Plug-In . SVG Version: 6.00 Build 0)  -->
<svg version="1.1" id="Layer_1" xmlns="http://www.w3.org/2000/svg" xmlns:xlink="http://www.w3.org/1999/xlink" x="0px" y="0px"
	 viewBox="0 0 575 100" style="enable-background:new 0 0 575 100;" xml:space="preserve">
<style type="text/css">
	.st0{fill:#005640;}
	.st1{fill:#FFB600;}
</style>
<g>
	<g>
		<path class="st0" d="M127.24,72.84h-21.47v-1.35c1.99,0,3.36-0.54,4.13-1.61c0.77-1.07,1.15-3,1.15-5.79V35.04
			c0-2.84-0.36-4.78-1.09-5.84c-0.73-1.06-2.12-1.59-4.19-1.59v-1.35h17.58c5.04,0,9,1.04,11.89,3.12c2.89,2.08,4.33,4.82,4.33,8.23
			c0,5-3.12,8.52-9.37,10.56v0.2c3.55,0.72,6.44,2.29,8.68,4.71c2.24,2.43,3.36,5.21,3.36,8.37c0,3.45-1.37,6.21-4.12,8.29
			C135.37,71.8,131.75,72.84,127.24,72.84z M117.21,28.04v19.74h4.82c3.37,0,6.05-0.88,8.04-2.64c1.99-1.76,2.99-4.14,2.99-7.13
			c0-3.15-0.98-5.6-2.93-7.35c-1.95-1.75-4.71-2.62-8.26-2.62H117.21z M121.63,49.57h-4.42v13.67c0,3.02,0.33,5.08,1,6.18
			s1.94,1.65,3.82,1.65h3.86c2.71,0,4.92-0.91,6.63-2.72c1.71-1.81,2.57-4.24,2.57-7.29c0-3.47-1.23-6.25-3.68-8.34
			C128.94,50.61,125.69,49.57,121.63,49.57z"/>
		<path class="st0" d="M155.86,43.25v6.24c2.65-2.3,4.71-3.92,6.18-4.85c1.47-0.93,2.69-1.39,3.67-1.39c1.83,0,3.59,0.75,5.28,2.26
			l-2.18,5.12c-3.07-1.69-5.35-2.54-6.83-2.54c-1.64,0-3.68,1.17-6.12,3.5v15.84c0,1.59,0.33,2.67,0.99,3.22
			c0.66,0.56,1.93,0.83,3.81,0.83v1.35h-15.21v-1.35c2.01,0,3.33-0.32,3.95-0.96c0.62-0.64,0.93-2.17,0.93-4.58V50.22
			c0-1.99-0.34-3.28-1.01-3.86c-0.68-0.58-2.32-0.88-4.95-0.88v-1.35l10.09-0.87H155.86z"/>
		<path class="st0" d="M187.67,44.12v1.35c-1.63,0.24-2.45,1.08-2.45,2.52c0,0.56,0.15,1.19,0.44,1.88l6.92,16.29l5.02-15.23
			c0.4-1.25,0.6-2.25,0.6-2.99c0-1.54-0.97-2.37-2.9-2.48v-1.35h10.21v1.35c-1.54,0-2.81,0.52-3.82,1.57
			c-1.01,1.05-1.92,2.78-2.74,5.19L187.47,86.2c-1.12,3.23-2.54,5.78-4.26,7.66c-1.73,1.88-3.49,2.82-5.3,2.82
			c-1.06,0-2.26-0.41-3.59-1.23l1.88-4.96c1.01,0.45,1.94,0.67,2.79,0.67c1.73,0,3.16-0.54,4.29-1.63c1.13-1.09,2.15-2.9,3.05-5.44
			l3.7-10.45l-10.34-23.83c-0.77-1.74-1.53-2.89-2.29-3.45c-0.76-0.56-1.94-0.85-3.56-0.88v-1.35H187.67z"/>
		<path class="st0" d="M215.5,73.76c-2.25,0-4.18-0.75-5.8-2.25c-1.62-1.5-2.42-3.3-2.42-5.42c0-2.01,0.7-3.67,2.09-4.99
			c1.39-1.31,4.22-2.56,8.48-3.75c2.67-0.74,4.47-1.38,5.4-1.91V53.3c0-2.09-0.58-3.78-1.75-5.06c-1.17-1.28-2.73-1.93-4.69-1.93
			c-1.77,0-3.35,0.56-4.73,1.67c-1.38,1.11-2.34,2.62-2.9,4.53l-1.47-0.4c0.58-2.67,1.85-4.82,3.79-6.43
			c1.95-1.62,4.23-2.42,6.85-2.42c3.1,0,5.61,0.93,7.53,2.8c1.92,1.87,2.88,4.46,2.88,7.77v12.35c0,1.75,0.11,2.93,0.34,3.55
			c0.22,0.62,0.66,0.93,1.29,0.93c0.42,0,0.77-0.18,1.03-0.54c0.26-0.36,0.57-1.11,0.91-2.24h1.39c-0.13,1.8-0.69,3.23-1.69,4.29
			c-0.99,1.06-2.3,1.59-3.91,1.59c-2.36,0-3.99-1.36-4.89-4.09c-1.43,1.56-2.7,2.64-3.81,3.22S217.01,73.76,215.5,73.76z
			 M223.25,67.01v-9.77c-0.82,0.34-2.01,0.78-3.58,1.31c-2.89,0.98-4.73,1.95-5.54,2.92c-0.81,0.97-1.21,2.27-1.21,3.91
			c0,1.43,0.43,2.67,1.29,3.71c0.86,1.05,1.89,1.57,3.08,1.57c1.09,0,2.22-0.35,3.42-1.05C221.9,68.91,222.74,68.04,223.25,67.01z"
			/>
		<path class="st0" d="M246.49,43.25v5.76c3.36-3.84,6.83-5.76,10.41-5.76c2.78,0,5.1,0.95,6.95,2.84c1.85,1.9,2.78,4.4,2.78,7.5
			V66.6c0,1.99,0.33,3.3,0.99,3.94c0.66,0.64,1.96,0.95,3.89,0.95v1.35h-15.37v-1.35c1.91,0,3.21-0.25,3.91-0.74
			c0.7-0.49,1.05-1.44,1.05-2.84V52.83c0-2.02-0.6-3.62-1.81-4.81s-2.75-1.79-4.63-1.79c-2.7,0-5.43,1.88-8.18,5.64v14.09
			c0,2.39,0.31,3.91,0.93,4.56c0.62,0.65,1.91,0.97,3.88,0.97v1.35h-15.17v-1.35c2.2,0,3.55-0.35,4.05-1.06
			c0.5-0.7,0.75-2.2,0.75-4.48V49.7c0-1.73-0.3-2.86-0.91-3.41c-0.61-0.54-1.91-0.82-3.89-0.82v-1.35l8.98-0.87H246.49z"/>
		<path class="st0" d="M292.35,39.08c0-3.1,1.04-5.65,3.12-7.65s4.72-3,7.92-3c2.6,0,4.81,0.83,6.63,2.48
			c1.83,1.66,2.74,3.65,2.74,5.98c0,3.95-2.79,7.39-8.38,10.33c3.26,2.81,7.24,7.08,11.96,12.83c2.28-3.89,3.42-7.14,3.42-9.73
			c0-1.46-0.25-2.47-0.74-3.04s-1.38-0.89-2.68-0.97v-1.35h13.27v1.35c-2.07,0-3.47,0.29-4.21,0.87c-0.74,0.58-1.4,1.32-1.99,2.22
			c-0.58,0.9-1.31,2.46-2.18,4.69c-1.22,3.21-2.44,5.73-3.66,7.59c3.02,3.81,5.14,6.26,6.38,7.35c1.23,1.09,2.27,1.63,3.12,1.63
			c0.95,0,2.01-0.54,3.18-1.63l1.07,0.87c-1.85,2.73-4.32,4.09-7.39,4.09c-1.33,0-2.59-0.34-3.79-1.01
			c-1.21-0.67-2.72-2.06-4.55-4.15c-0.74-0.85-1.3-1.46-1.67-1.83c-3.84,4.66-8.34,6.99-13.51,6.99c-3.63,0-6.71-1.12-9.24-3.36
			c-2.53-2.24-3.79-4.97-3.79-8.2c0-2.38,0.88-4.71,2.64-6.99c1.76-2.28,4.27-4.32,7.53-6.12C294.09,46.1,292.35,42.68,292.35,39.08
			z M292.99,59.58c0,2.73,1.11,5.22,3.34,7.47c2.22,2.25,4.7,3.38,7.43,3.38c1.67,0,3.2-0.38,4.61-1.15c1.4-0.77,2.9-2.04,4.49-3.81
			c-5.08-6.28-9.77-11.24-14.06-14.9c-1.72,0.93-3.12,2.22-4.19,3.89C293.53,56.12,292.99,57.83,292.99,59.58z M296.33,36.5
			c0,1.38,0.62,2.95,1.87,4.71c1.24,1.76,2.9,3.44,4.96,5.02c3.58-2.07,5.36-4.99,5.36-8.78c0-1.96-0.57-3.56-1.71-4.81
			c-1.14-1.24-2.62-1.87-4.45-1.87c-1.75,0-3.19,0.54-4.33,1.61C296.9,33.46,296.33,34.83,296.33,36.5z"/>
		<path class="st0" d="M386.95,64.09V50.56h-25.38v13.53c0,2.76,0.39,4.68,1.17,5.77c0.78,1.09,2.19,1.63,4.23,1.63v1.35h-16.84
			v-1.35c2.04,0,3.43-0.55,4.17-1.65c0.74-1.1,1.11-3.02,1.11-5.75V35.04c0-2.86-0.38-4.82-1.13-5.86
			c-0.75-1.05-2.14-1.57-4.15-1.57v-1.35h16.84v1.35c-2.04,0-3.45,0.56-4.23,1.69s-1.17,3.04-1.17,5.74V48.3h25.38V35.03
			c0-2.86-0.36-4.81-1.09-5.86c-0.73-1.05-2.1-1.57-4.11-1.57v-1.35h16.68v1.35c-1.99,0-3.36,0.54-4.13,1.63
			c-0.77,1.09-1.15,3.02-1.15,5.8V64.1c0,2.78,0.38,4.71,1.15,5.79c0.77,1.07,2.15,1.61,4.13,1.61v1.35h-16.68v-1.35
			c2.07,0,3.45-0.54,4.15-1.61C386.6,68.81,386.95,66.88,386.95,64.09z"/>
		<path class="st0" d="M429.94,65.46v2.11c-1.75,2.22-3.53,3.81-5.34,4.77s-3.99,1.43-6.53,1.43c-4.5,0-8.22-1.41-11.14-4.23
			c-2.93-2.82-4.39-6.4-4.39-10.75c0-4.37,1.4-8.05,4.19-11.04s6.22-4.49,10.27-4.49c3.34,0,6.25,1.13,8.74,3.38
			c2.49,2.25,3.73,4.94,3.73,8.06v0.6h-21.17v0.4c0,3.18,0.48,5.94,1.45,8.28c0.97,2.34,2.38,4.18,4.23,5.5
			c1.85,1.32,3.79,1.99,5.8,1.99c1.88,0,3.49-0.39,4.83-1.17C425.93,69.5,427.71,67.89,429.94,65.46z M408.29,53.9h15.69v-0.56
			c0-2.57-0.74-4.61-2.21-6.12c-1.47-1.51-3.3-2.26-5.5-2.26c-2.33,0-4.21,0.79-5.62,2.38C409.24,48.93,408.45,51.12,408.29,53.9z"
			/>
		<path class="st0" d="M461.25,21.76h1.35v45.52c0,1.59,0.34,2.69,1.03,3.3s1.95,0.91,3.77,0.91v1.35h-16.76
			c-5.16,0-9.25-1.42-12.25-4.25c-3.01-2.83-4.51-6.41-4.51-10.73c0-4.05,1.32-7.5,3.95-10.35s5.82-4.27,9.55-4.27
			c2.99,0,6.22,1.17,9.69,3.5V29.07c0-1.93-0.25-3.24-0.75-3.93c-0.5-0.69-1.52-1.03-3.06-1.03h-1.63v-1.35L461.25,21.76z
			 M457.08,67.16V49.81c-1.11-1.51-2.42-2.69-3.91-3.56c-1.5-0.86-2.99-1.29-4.47-1.29c-2.62,0-4.74,1.08-6.36,3.24
			c-1.62,2.16-2.42,4.97-2.42,8.44c0,4.48,1.11,8.08,3.32,10.8c2.21,2.73,5.3,4.09,9.28,4.09c1.62,0,2.78-0.34,3.5-1.03
			C456.73,69.81,457.08,68.7,457.08,67.16z"/>
		<path class="st0" d="M496.66,21.76h1.35v45.52c0,1.59,0.34,2.69,1.03,3.3s1.95,0.91,3.77,0.91v1.35h-16.76
			c-5.16,0-9.25-1.42-12.25-4.25c-3.01-2.83-4.51-6.41-4.51-10.73c0-4.05,1.32-7.5,3.95-10.35s5.82-4.27,9.55-4.27
			c2.99,0,6.22,1.17,9.69,3.5V29.07c0-1.93-0.25-3.24-0.75-3.93c-0.5-0.69-1.52-1.03-3.06-1.03h-1.63v-1.35L496.66,21.76z
			 M492.49,67.16V49.81c-1.11-1.51-2.42-2.69-3.91-3.56c-1.5-0.86-2.99-1.29-4.47-1.29c-2.62,0-4.74,1.08-6.36,3.24
			c-1.62,2.16-2.42,4.97-2.42,8.44c0,4.48,1.11,8.08,3.32,10.8c2.21,2.73,5.3,4.09,9.28,4.09c1.62,0,2.78-0.34,3.5-1.03
			C492.13,69.81,492.49,68.7,492.49,67.16z"/>
		<path class="st0" d="M532.31,65.46v2.11c-1.75,2.22-3.53,3.81-5.34,4.77s-3.99,1.43-6.53,1.43c-4.5,0-8.22-1.41-11.14-4.23
			c-2.93-2.82-4.39-6.4-4.39-10.75c0-4.37,1.4-8.05,4.19-11.04s6.22-4.49,10.27-4.49c3.34,0,6.25,1.13,8.74,3.38
			c2.49,2.25,3.73,4.94,3.73,8.06v0.6h-21.17v0.4c0,3.18,0.48,5.94,1.45,8.28c0.97,2.34,2.38,4.18,4.23,5.5
			c1.85,1.32,3.79,1.99,5.8,1.99c1.88,0,3.49-0.39,4.83-1.17C528.3,69.5,530.09,67.89,532.31,65.46z M510.66,53.9h15.69v-0.56
			c0-2.57-0.74-4.61-2.21-6.12c-1.47-1.51-3.3-2.26-5.5-2.26c-2.33,0-4.21,0.79-5.62,2.38C511.61,48.93,510.82,51.12,510.66,53.9z"
			/>
		<path class="st0" d="M544.82,43.25v5.76c3.36-3.84,6.83-5.76,10.41-5.76c2.78,0,5.1,0.95,6.95,2.84s2.78,4.4,2.78,7.5V66.6
			c0,1.99,0.33,3.3,0.99,3.94s1.96,0.95,3.89,0.95v1.35h-15.37v-1.35c1.91,0,3.21-0.25,3.91-0.74c0.7-0.49,1.05-1.44,1.05-2.84
			V52.83c0-2.02-0.6-3.62-1.81-4.81c-1.21-1.19-2.75-1.79-4.63-1.79c-2.7,0-5.43,1.88-8.18,5.64v14.09c0,2.39,0.31,3.91,0.92,4.56
			c0.62,0.65,1.91,0.97,3.88,0.97v1.35h-15.17v-1.35c2.2,0,3.55-0.35,4.05-1.06s0.75-2.2,0.75-4.48V49.7c0-1.73-0.3-2.86-0.91-3.41
			c-0.61-0.54-1.91-0.82-3.89-0.82v-1.35l8.98-0.87H544.82z"/>
	</g>
	<g>
		<rect x="5.16" y="1.77" class="st1" width="11.1" height="96.47"/>
		<rect x="27.35" y="55.63" class="st1" width="11.1" height="42.61"/>
		<rect x="27.35" y="1.77" class="st1" width="11.1" height="42.61"/>
		<path class="st1" d="M59.43,50c7.42-4.39,12.44-12.82,12.44-22.51c0-13.57-9.85-24.67-22.33-25.65v96.31
			c12.48-0.98,22.33-12.08,22.33-25.65C71.87,62.82,66.85,54.39,59.43,50z"/>
	</g>
</g>
</svg>
